<svg width="37" height="23" viewBox="0 0 37 23" fill="none" xmlns="http://www.w3.org/2000/svg">
<rect width="37" height="23" rx="4" fill="#F6F6F6"/>
<path d="M18.3281 9.78408C18.0631 9.78408 17.8491 9.99809 17.8491 10.2529V13.7893C17.8491 14.0543 18.0631 14.2683 18.3281 14.2683C18.593 14.2683 18.807 14.0543 18.807 13.7893V10.2529C18.807 9.99809 18.593 9.78408 18.3281 9.78408ZM18.328 8.02099C18.0325 8.02099 17.788 8.26558 17.788 8.56113C17.788 8.85668 18.0325 9.11147 18.328 9.11147C18.6235 9.11147 18.8681 8.86688 18.8681 8.56113C18.8681 8.26558 18.6235 8.02099 18.328 8.02099ZM22.995 10.2529C22.995 9.95732 22.7607 9.84522 22.5467 9.84522H20.1724C19.9381 9.84522 19.7546 10.0287 19.7546 10.2529C19.7546 10.4873 19.9381 10.6707 20.1724 10.6707H21.7315L19.7139 13.4836C19.6527 13.5651 19.6222 13.6772 19.6222 13.7689C19.6222 14.0645 19.8566 14.2275 20.0603 14.2275H22.5773C22.8116 14.2275 22.995 14.0441 22.995 13.8097C22.995 13.5753 22.8116 13.3919 22.5773 13.3919H20.8857L22.8626 10.6401C22.9645 10.4975 22.995 10.3752 22.995 10.2529ZM16.0048 12.4746C16.0048 13.0556 15.75 13.4123 15.1692 13.4123C14.5884 13.4123 14.3438 13.0556 14.3438 12.4746V10.6707H15.2099C15.913 10.6707 16.0048 11.058 16.0048 11.4861V12.4746ZM16.9626 11.4657C16.9626 10.4771 16.4429 9.83506 15.2303 9.83506H14.354V8.49998C14.354 8.23501 14.14 8.02099 13.8853 8.02099C13.6203 8.02099 13.4063 8.23501 13.4063 8.49998V12.4746C13.4063 13.4632 13.9362 14.2683 15.1895 14.2683C16.4327 14.2683 16.9728 13.453 16.9728 12.4746V11.4861V11.4657H16.9626ZM26.7347 9.78408C26.4698 9.78408 26.2558 9.99809 26.2558 10.2631V12.4746C26.2558 13.0555 26.001 13.4122 25.4202 13.4122C24.8394 13.4122 24.5948 13.0555 24.5948 12.4746V10.2631C24.5948 9.99809 24.3809 9.78408 24.1261 9.78408C23.8612 9.78408 23.6472 9.99809 23.6472 10.2631V12.4746C23.6472 13.4632 24.1771 14.2683 25.4304 14.2683C26.6736 14.2683 27.2136 13.453 27.2136 12.4746V10.2631C27.2035 9.99809 26.9895 9.78408 26.7347 9.78408ZM34 11.588C34 10.5994 33.5417 9.79429 32.2985 9.79429C31.738 9.79429 31.3406 9.95738 31.0654 10.2325C30.7904 9.96757 30.393 9.79429 29.8325 9.79429C28.5893 9.79429 28.1307 10.6096 28.1307 11.588V13.7995C28.1307 14.0645 28.3447 14.2786 28.5995 14.2786C28.8643 14.2786 29.0784 14.0645 29.0784 13.7995V11.588C29.0784 11.0071 29.2617 10.6504 29.8325 10.6504C30.4132 10.6504 30.5865 11.0071 30.5865 11.588V13.7995C30.5865 14.0645 30.8006 14.2786 31.0551 14.2786C31.3201 14.2786 31.5342 14.0645 31.5342 13.7995V11.588C31.5342 11.0071 31.7175 10.6504 32.2883 10.6504C32.869 10.6504 33.0424 11.0071 33.0424 11.588V13.7995C33.0424 14.0645 33.2562 14.2786 33.5109 14.2786C33.776 14.2786 33.99 14.0645 33.99 13.7995L34 11.588ZM4.69397 9.79427C5.03024 10.0389 5.49897 9.96754 5.74352 9.63121L6.61987 8.41843C6.86442 8.08211 6.79309 7.61331 6.45684 7.36871C6.12056 7.12412 5.65183 7.19546 5.40726 7.53177L4.52074 8.74456C4.28638 9.08088 4.35771 9.54969 4.69397 9.79427ZM8.70879 8.08211C8.37251 7.83752 7.90378 7.90886 7.65922 8.24517L4.13351 13.0963C3.88896 13.4326 3.96029 13.9014 4.29655 14.146C4.63282 14.3906 5.10155 14.3193 5.34611 13.983L8.87182 9.13183C9.12656 8.79552 9.04504 8.32671 8.70879 8.08211ZM4.3577 7.69484C4.60226 7.35853 4.53093 6.88972 4.19466 6.64513C3.8584 6.40053 3.38966 6.47187 3.1451 6.80819C2.90055 7.14451 2.97188 7.61331 3.30814 7.85791C3.64441 8.1025 4.11315 8.03116 4.3577 7.69484ZM9.7074 14.3601C9.37115 14.1154 8.90241 14.1868 8.65786 14.5231C8.4133 14.8594 8.48461 15.3282 8.82089 15.5728C9.15716 15.8174 9.6259 15.7461 9.87045 15.4098C10.115 15.0734 10.0437 14.6046 9.7074 14.3601ZM8.33177 12.4339C7.99552 12.1893 7.52679 12.2606 7.28223 12.5969L6.39569 13.8097C6.15113 14.146 6.22247 14.6148 6.55872 14.8594C6.895 15.104 7.36373 15.0327 7.60829 14.6964L8.49483 13.4836C8.73938 13.1473 8.66805 12.6785 8.33177 12.4339ZM18.3281 9.78408C18.0631 9.78408 17.8491 9.99809 17.8491 10.2529V13.7893C17.8491 14.0543 18.0631 14.2683 18.3281 14.2683C18.593 14.2683 18.807 14.0543 18.807 13.7893V10.2529C18.807 9.99809 18.593 9.78408 18.3281 9.78408ZM18.328 8.02099C18.0325 8.02099 17.788 8.26558 17.788 8.56113C17.788 8.85668 18.0325 9.11147 18.328 9.11147C18.6235 9.11147 18.8681 8.86688 18.8681 8.56113C18.8681 8.26558 18.6235 8.02099 18.328 8.02099ZM22.995 10.2529C22.995 9.95732 22.7607 9.84522 22.5467 9.84522H20.1724C19.9381 9.84522 19.7546 10.0287 19.7546 10.2529C19.7546 10.4873 19.9381 10.6707 20.1724 10.6707H21.7315L19.7139 13.4836C19.6527 13.5651 19.6222 13.6772 19.6222 13.7689C19.6222 14.0645 19.8566 14.2275 20.0603 14.2275H22.5773C22.8116 14.2275 22.995 14.0441 22.995 13.8097C22.995 13.5753 22.8116 13.3919 22.5773 13.3919H20.8857L22.8626 10.6401C22.9645 10.4975 22.995 10.3752 22.995 10.2529ZM16.0048 12.4746C16.0048 13.0556 15.75 13.4123 15.1692 13.4123C14.5884 13.4123 14.3438 13.0556 14.3438 12.4746V10.6707H15.2099C15.913 10.6707 16.0048 11.058 16.0048 11.4861V12.4746ZM16.9626 11.4657C16.9626 10.4771 16.4429 9.83506 15.2303 9.83506H14.354V8.49998C14.354 8.23501 14.14 8.02099 13.8853 8.02099C13.6203 8.02099 13.4063 8.23501 13.4063 8.49998V12.4746C13.4063 13.4632 13.9362 14.2683 15.1895 14.2683C16.4327 14.2683 16.9728 13.453 16.9728 12.4746V11.4861V11.4657H16.9626ZM26.7347 9.78408C26.4698 9.78408 26.2558 9.99809 26.2558 10.2631V12.4746C26.2558 13.0555 26.001 13.4122 25.4202 13.4122C24.8394 13.4122 24.5948 13.0555 24.5948 12.4746V10.2631C24.5948 9.99809 24.3809 9.78408 24.1261 9.78408C23.8612 9.78408 23.6472 9.99809 23.6472 10.2631V12.4746C23.6472 13.4632 24.1771 14.2683 25.4304 14.2683C26.6736 14.2683 27.2136 13.453 27.2136 12.4746V10.2631C27.2035 9.99809 26.9895 9.78408 26.7347 9.78408ZM34 11.588C34 10.5994 33.5417 9.79429 32.2985 9.79429C31.738 9.79429 31.3406 9.95738 31.0654 10.2325C30.7904 9.96757 30.393 9.79429 29.8325 9.79429C28.5893 9.79429 28.1307 10.6096 28.1307 11.588V13.7995C28.1307 14.0645 28.3447 14.2786 28.5995 14.2786C28.8643 14.2786 29.0784 14.0645 29.0784 13.7995V11.588C29.0784 11.0071 29.2617 10.6504 29.8325 10.6504C30.4132 10.6504 30.5865 11.0071 30.5865 11.588V13.7995C30.5865 14.0645 30.8006 14.2786 31.0551 14.2786C31.3201 14.2786 31.5342 14.0645 31.5342 13.7995V11.588C31.5342 11.0071 31.7175 10.6504 32.2883 10.6504C32.869 10.6504 33.0424 11.0071 33.0424 11.588V13.7995C33.0424 14.0645 33.2562 14.2786 33.5109 14.2786C33.776 14.2786 33.99 14.0645 33.99 13.7995L34 11.588ZM4.69397 9.79427C5.03024 10.0389 5.49897 9.96754 5.74352 9.63121L6.61987 8.41843C6.86442 8.08211 6.79309 7.61331 6.45684 7.36871C6.12056 7.12412 5.65183 7.19546 5.40726 7.53177L4.52074 8.74456C4.28638 9.08088 4.35771 9.54969 4.69397 9.79427ZM8.70879 8.08211C8.37251 7.83752 7.90378 7.90886 7.65922 8.24517L4.13351 13.0963C3.88896 13.4326 3.96029 13.9014 4.29655 14.146C4.63282 14.3906 5.10155 14.3193 5.34611 13.983L8.87182 9.13183C9.12656 8.79552 9.04504 8.32671 8.70879 8.08211ZM4.3577 7.69484C4.60226 7.35853 4.53093 6.88972 4.19466 6.64513C3.8584 6.40053 3.38966 6.47187 3.1451 6.80819C2.90055 7.14451 2.97188 7.61331 3.30814 7.85791C3.64441 8.1025 4.11315 8.03116 4.3577 7.69484ZM9.7074 14.3601C9.37115 14.1154 8.90241 14.1868 8.65786 14.5231C8.4133 14.8594 8.48461 15.3282 8.82089 15.5728C9.15716 15.8174 9.6259 15.7461 9.87045 15.4098C10.115 15.0734 10.0437 14.6046 9.7074 14.3601ZM8.33177 12.4339C7.99552 12.1893 7.52679 12.2606 7.28223 12.5969L6.39569 13.8097C6.15113 14.146 6.22247 14.6148 6.55872 14.8594C6.895 15.104 7.36373 15.0327 7.60829 14.6964L8.49483 13.4836C8.73938 13.1473 8.66805 12.6785 8.33177 12.4339Z" fill="#57BDC5"/>
</svg>
