<svg width="37" height="23" viewBox="0 0 37 23" fill="none" xmlns="http://www.w3.org/2000/svg">
<rect width="37" height="23" rx="4" fill="#F6F6F6"/>
<path d="M14.7408 12.9088V11.7597C14.7408 11.4561 14.4947 11.2101 14.1912 11.2101H12.9921C12.6886 11.2101 12.4426 11.4561 12.4426 11.7597V12.9088" stroke="#0E253A" stroke-width="0.249806"/>
<path d="M17.4387 11.0851L17.4387 12.2342C17.4387 12.5377 17.6847 12.7837 17.9883 12.7837L19.1873 12.7837C19.4909 12.7837 19.7369 12.5377 19.7369 12.2342L19.7369 11.0851" stroke="#0E253A" stroke-width="0.249806"/>
<path d="M32.1771 11.2101H30.978C30.6745 11.2101 30.4285 11.4561 30.4285 11.7597V12.9088" stroke="#0E253A" stroke-width="0.249806"/>
<path d="M10.0943 9.43631H9.84453C9.43063 9.43631 9.09511 9.77184 9.09511 10.1857V11.1725M9.09511 12.9086V11.1725M9.09511 11.1725H9.54476" stroke="#0E253A" stroke-width="0.249806"/>
<path d="M11.4434 9.43631H11.1936C10.7797 9.43631 10.4441 9.77184 10.4441 10.1857V11.1725M10.4441 12.9086V11.1725M10.4441 11.1725H10.8938" stroke="#0E253A" stroke-width="0.249806"/>
<path d="M16.1396 11.1726H16.5893" stroke="#0E253A" stroke-width="0.249806"/>
<path d="M11.6683 11.0602V12.9088" stroke="#0E253A" stroke-width="0.249806"/>
<path d="M15.4652 11.0602V12.9088" stroke="#0E253A" stroke-width="0.249806"/>
<path d="M16.0897 9.31147V12.1593C16.0897 12.4904 16.3582 12.7588 16.6893 12.7588H17.039" stroke="#0E253A" stroke-width="0.249806"/>
<path d="M19.7369 11.1101V13.9579C19.7369 14.289 19.4685 14.5574 19.1374 14.5574H18.7876" stroke="#0E253A" stroke-width="0.249806"/>
<path d="M34.8751 12.9087V10.061C34.8751 9.72984 34.6067 9.46142 34.2755 9.46142H33.9258" stroke="#0E253A" stroke-width="0.249806"/>
<circle cx="11.6681" cy="10.5855" r="0.174864" fill="#0E253A"/>
<path d="M3.74931 9.43637H7.19664C7.54155 9.43637 7.82115 9.71598 7.82115 10.0609V12.1593C7.82115 12.5042 7.54155 12.7838 7.19664 12.7838H3.74931C3.4044 12.7838 3.1248 12.5042 3.1248 12.1593V10.0609C3.1248 9.71598 3.4044 9.43637 3.74931 9.43637Z" stroke="#0E253A" stroke-width="0.249806"/>
<path d="M8.74548 12.7839H8.32081C8.04488 12.7839 7.8212 12.5602 7.8212 12.2843V11.8346" stroke="#0E253A" stroke-width="0.249806"/>
<path d="M26.2319 10.0609V10.0609C26.2319 9.647 25.8963 9.31147 25.4824 9.31147H22.0351C21.6212 9.31147 21.2857 9.647 21.2857 10.0609V12.1593C21.2857 12.5732 21.6212 12.9087 22.0351 12.9087H25.6074C25.9523 12.9087 26.2319 12.6291 26.2319 12.2842V12.2842" stroke="#0E253A" stroke-width="0.249806"/>
<path d="M27.281 11.1852H28.4301C28.775 11.1852 29.0546 11.4648 29.0546 11.8097V12.1594C29.0546 12.5043 28.775 12.7839 28.4301 12.7839H27.281C26.9361 12.7839 26.6565 12.5043 26.6565 12.1594V11.8097C26.6565 11.4648 26.9361 11.1852 27.281 11.1852Z" stroke="#0E253A" stroke-width="0.249806"/>
<path d="M33.1264 11.185H34.2505C34.5954 11.185 34.875 11.4646 34.875 11.8095V12.1592C34.875 12.5041 34.5954 12.7837 34.2505 12.7837H33.1264C32.7815 12.7837 32.5019 12.5041 32.5019 12.1592V11.8095C32.5019 11.4646 32.7815 11.185 33.1264 11.185Z" stroke="#0E253A" stroke-width="0.249806"/>
<path d="M29.954 12.8446H29.5402C29.2721 12.8446 29.0547 12.6272 29.0547 12.3591V12.3591V12.0094" stroke="#0E253A" stroke-width="0.249806"/>
<circle cx="15.4652" cy="10.5855" r="0.174864" fill="#0E253A"/>
</svg>
