<svg width="37" height="23" viewBox="0 0 37 23" fill="none" xmlns="http://www.w3.org/2000/svg">
<rect width="37" height="23" rx="4" fill="#F6F6F6"/>
<path fill-rule="evenodd" clip-rule="evenodd" d="M5.22365 7.00049H7.47794C8.23245 7.00049 8.80072 7.20813 9.12112 7.60073C9.41284 7.95827 9.50942 8.46873 9.40857 9.11843C9.18473 10.6035 8.32771 11.3529 6.84275 11.3529H6.12911C5.97517 11.3529 5.84367 11.4699 5.81992 11.629L5.57402 13.2551C5.54995 13.4142 5.41877 13.5311 5.26451 13.5311H4.18827C4.07259 13.5311 3.98423 13.4238 4.00237 13.3049L4.91411 7.27624C4.93818 7.11734 5.06936 7.00049 5.22365 7.00049ZM6.39907 10.046C6.99669 10.046 7.61474 10.046 7.73803 9.20238C7.78319 8.90604 7.74692 8.69149 7.62857 8.54713C7.43015 8.30508 7.04612 8.30508 6.63903 8.30508H6.48314C6.39083 8.30508 6.31174 8.3752 6.29755 8.47045L6.05891 10.046H6.39907Z" fill="#283B82"/>
<path fill-rule="evenodd" clip-rule="evenodd" d="M13.137 9.17493H14.2165C14.3319 9.17493 14.4199 9.28256 14.4014 9.40114L13.818 13.2545C13.7936 13.4136 13.6631 13.5305 13.5084 13.5305H12.5362C12.4211 13.5305 12.3327 13.4233 12.3509 13.3036L12.399 12.9908C12.399 12.9908 11.866 13.6354 10.9048 13.6354C10.3447 13.6354 9.87404 13.4669 9.54508 13.0626C9.18646 12.6229 9.03977 11.9925 9.14293 11.3331C9.34136 10.0113 10.3602 9.06909 11.5531 9.06909C12.0733 9.06909 12.5944 9.18731 12.8282 9.54103L12.9036 9.65522L12.9514 9.34031C12.9656 9.24513 13.0451 9.17493 13.137 9.17493ZM11.4939 12.4412C12.1181 12.4412 12.6077 12.0093 12.7118 11.3662C12.7589 11.0547 12.6937 10.7721 12.5292 10.5696C12.365 10.3692 12.1159 10.263 11.8092 10.263C11.1945 10.263 10.6968 10.7088 10.5996 11.3465C10.5488 11.6594 10.6094 11.9403 10.769 12.1375C10.9299 12.3363 11.1804 12.4412 11.4939 12.4412Z" fill="#283B82"/>
<path d="M19.9658 9.17512H18.8811C18.7775 9.17512 18.6803 9.22876 18.6217 9.31847L17.1255 11.6169L16.4913 9.40825C16.4514 9.27001 16.3291 9.17512 16.1907 9.17512H15.1247C14.9951 9.17512 14.9052 9.30709 14.9464 9.43431L16.1412 13.0913L15.0179 14.7453C14.9295 14.8755 15.0185 15.0546 15.1712 15.0546H16.2547C16.3575 15.0546 16.4538 15.0024 16.5121 14.9144L20.1201 9.48284C20.2065 9.35288 20.1179 9.17512 19.9658 9.17512Z" fill="#283B82"/>
<path fill-rule="evenodd" clip-rule="evenodd" d="M21.3027 7.00039H23.5573C24.3118 7.00039 24.8797 7.20803 25.1998 7.60063C25.4916 7.95817 25.5888 8.46863 25.4876 9.11833C25.2634 10.6034 24.4067 11.3528 22.9215 11.3528H22.2081C22.0542 11.3528 21.9227 11.4698 21.8989 11.6289L21.6402 13.3378C21.6234 13.4492 21.5314 13.531 21.424 13.531H20.2669C20.1519 13.531 20.0636 13.4237 20.0817 13.3048L20.9935 7.27614C21.0175 7.11725 21.1487 7.00039 21.3027 7.00039ZM22.4784 10.0459C23.0764 10.0459 23.6944 10.0459 23.8174 9.20228C23.8625 8.90594 23.8266 8.69139 23.7083 8.54704C23.5099 8.30498 23.1255 8.30498 22.7187 8.30498H22.5628C22.4702 8.30498 22.3918 8.37511 22.3776 8.47036L22.1386 10.0459H22.4784Z" fill="#469BDB"/>
<path fill-rule="evenodd" clip-rule="evenodd" d="M29.2168 9.17493H30.2957C30.4113 9.17493 30.4996 9.28256 30.4819 9.40114L29.8981 13.2545C29.8741 13.4136 29.7428 13.5305 29.5889 13.5305H28.6169C28.5011 13.5305 28.4128 13.4233 28.4309 13.3036L28.479 12.9908C28.479 12.9908 27.9461 13.6354 26.9848 13.6354C26.4248 13.6354 25.9548 13.4669 25.6252 13.0626C25.2666 12.6229 25.1205 11.9925 25.2233 11.3331C25.4218 10.0113 26.4403 9.06909 27.6333 9.06909C28.1534 9.06909 28.6743 9.18731 28.9079 9.54103L28.9837 9.65522L29.0315 9.34031C29.0453 9.24513 29.1242 9.17493 29.2168 9.17493ZM27.5729 12.4412C28.1972 12.4412 28.6874 12.0093 28.7909 11.3662C28.8387 11.0547 28.7734 10.7721 28.6083 10.5696C28.4441 10.3692 28.1949 10.263 27.8884 10.263C27.2736 10.263 26.7766 10.7088 26.6787 11.3465C26.6285 11.6594 26.6886 11.9403 26.8481 12.1375C27.0089 12.3363 27.2601 12.4412 27.5729 12.4412Z" fill="#469BDB"/>
<path d="M31.5683 7.16567L30.643 13.3047C30.6249 13.4236 30.7132 13.5309 30.8283 13.5309H31.7585C31.913 13.5309 32.0443 13.414 32.068 13.2549L32.9804 7.22658C32.9985 7.10756 32.9102 7 32.7951 7H31.7535C31.6615 7.00029 31.5824 7.07049 31.5683 7.16567Z" fill="#469BDB"/>
</svg>
