<svg width="42" height="26" viewBox="0 0 42 26" fill="none" xmlns="http://www.w3.org/2000/svg">
<rect width="42" height="26" rx="4" fill="#F6F6F6"/>
<path d="M36.3334 20.3333H3L5.53334 5.66666H39L36.3334 20.3333Z" fill="#EDEDED"/>
<path d="M14.0583 10.7333C12.5607 10.7333 11.4238 11.8606 11.4238 13.2039C11.4238 14.4192 12.3569 15.2666 13.6271 15.2666C15.1247 15.2666 16.2537 14.1073 16.2537 12.7641C16.2616 11.5409 15.3285 10.7333 14.0583 10.7333ZM13.7212 14.1233C13.1488 14.1233 12.7489 13.7396 12.7489 13.1479C12.7489 12.4923 13.2429 11.8686 13.9564 11.8686C14.5288 11.8686 14.9286 12.2684 14.9286 12.8601C14.9365 13.5237 14.4347 14.1233 13.7212 14.1233Z" fill="#393A41"/>
<path d="M23.0671 10.7333C21.5695 10.7333 20.4404 11.8606 20.4404 13.2039C20.4404 14.4192 21.3735 15.2666 22.6437 15.2666C24.1413 15.2666 25.2703 14.1073 25.2703 12.7641C25.2782 11.5409 24.3452 10.7333 23.0671 10.7333ZM22.7378 14.1233C22.1654 14.1233 21.7656 13.7396 21.7656 13.1479C21.7656 12.4923 22.2595 11.8686 22.973 11.8686C23.5454 11.8686 23.9452 12.2684 23.9452 12.8601C23.9452 13.5237 23.4513 14.1233 22.7378 14.1233Z" fill="#393A41"/>
<path d="M29.6776 12.1644C29.6776 11.3489 29.0582 10.8293 27.9291 10.8293H26.3453L25.6475 15.1707H26.9803L27.1999 13.8035H27.2627L27.9683 15.1707H29.4973L28.5171 13.6516C29.2463 13.3957 29.6776 12.844 29.6776 12.1644ZM27.5449 12.884H27.3489L27.4979 11.9726H27.6782C28.0938 11.9726 28.3133 12.1005 28.3133 12.3804C28.3133 12.7081 27.9997 12.884 27.5449 12.884Z" fill="#393A41"/>
<path d="M9.89428 12.5642C9.38462 12.3004 9.27484 12.2365 9.27484 12.0925C9.27484 11.9166 9.47871 11.8287 9.75314 11.8287C10.0746 11.8287 10.5607 11.8686 11.039 12.3324C11.1566 11.9566 11.3527 11.6208 11.6036 11.3249C10.9293 10.9332 10.302 10.7333 9.72961 10.7333C8.59269 10.7333 7.93407 11.3569 7.93407 12.1085C7.93407 12.7561 8.41236 13.0919 8.9769 13.3877C9.48655 13.6516 9.612 13.7396 9.612 13.8994C9.612 14.0753 9.4003 14.1713 9.11803 14.1713C8.6319 14.1713 8.06736 13.8595 7.7302 13.5397L7.53418 14.7469C7.87918 15.0028 8.381 15.2666 9.14156 15.2666C10.3177 15.2666 10.9528 14.659 10.9528 13.8835C10.9528 13.2438 10.5451 12.9001 9.89428 12.5642Z" fill="#393A41"/>
<path d="M19.7736 12.7321H18.2054L18.3308 11.9726H20.0088C20.2283 11.5168 20.5655 11.1251 20.981 10.8293H18.2368C17.6252 10.8293 17.1076 11.253 17.0214 11.8287L16.4883 15.1787H17.8212L18.0408 13.8115H19.6246L19.7422 13.068C19.75 12.948 19.7579 12.844 19.7736 12.7321Z" fill="#393A41"/>
<path d="M29.709 10.8293C30.0697 11.1091 30.2892 11.5008 30.3363 11.9726H31.4496L30.94 15.1707H32.2729L32.7826 11.9726H34.0215L34.2018 10.8293H29.709Z" fill="#393A41"/>
</svg>
