<svg width="37" height="23" viewBox="0 0 37 23" fill="none" xmlns="http://www.w3.org/2000/svg">
<rect x="0.375" y="0.375" width="36.25" height="22.25" rx="3.625" fill="white"/>
<path fill-rule="evenodd" clip-rule="evenodd" d="M17.7927 14.6975V11.4345H19.4686C20.1554 11.4345 20.735 11.2033 21.2075 10.7472L21.3209 10.6317C22.184 9.6874 22.1273 8.21661 21.2075 7.34305C20.7475 6.88054 20.1176 6.63002 19.4686 6.64287H16.7785V14.6975H17.7927ZM17.7927 10.4454V7.63201H19.4938C19.8593 7.63201 20.2057 7.77342 20.4641 8.03033C21.0122 8.56987 21.0248 9.46914 20.4956 10.0279C20.2372 10.304 19.8719 10.4583 19.4938 10.4454H17.7927Z" fill="#3C4043"/>
<path fill-rule="evenodd" clip-rule="evenodd" d="M26.0523 9.61657C25.6176 9.2119 25.0253 9.00633 24.2757 9.00633C23.3117 9.00633 22.5872 9.366 22.1084 10.0791L23.003 10.6506C23.3306 10.1624 23.778 9.91848 24.345 9.91848C24.704 9.91848 25.0506 10.0533 25.3215 10.2974C25.5861 10.5287 25.7374 10.8626 25.7374 11.2159V11.4536C25.3467 11.2352 24.8553 11.1196 24.2505 11.1196C23.5447 11.1196 22.9778 11.2866 22.5557 11.627C22.1336 11.9675 21.9193 12.4171 21.9193 12.9887C21.9067 13.5089 22.1273 14.0035 22.5179 14.3375C22.9148 14.6972 23.4188 14.8771 24.011 14.8771C24.7103 14.8771 25.2647 14.5623 25.6869 13.9328H25.731V14.6972H26.7012V11.2994C26.7012 10.5864 26.487 10.0212 26.0523 9.61657ZM23.2991 13.6823C23.0912 13.5282 22.9652 13.2777 22.9652 13.008C22.9652 12.7061 23.1038 12.4555 23.3747 12.2564C23.6519 12.0573 23.9985 11.9546 24.4079 11.9546C24.9749 11.9482 25.416 12.0766 25.731 12.3335C25.731 12.7703 25.5609 13.1493 25.2269 13.4704C24.9245 13.7787 24.515 13.9521 24.0866 13.9521C23.8032 13.9585 23.526 13.8622 23.2991 13.6823Z" fill="#3C4043"/>
<path d="M32.2706 9.18645L28.8811 17.119H27.8352L29.0953 14.3442L26.8713 9.18645H27.9739L29.5805 13.1431H29.5994L31.1681 9.18645H32.2706Z" fill="#3C4043"/>
<path d="M13.691 10.7278C13.691 10.413 13.6658 10.0983 13.6154 9.78989H9.33755V11.5692H11.7884C11.6875 12.1408 11.3599 12.6546 10.8811 12.9758V14.1319H12.3428C13.1996 13.3291 13.691 12.1408 13.691 10.7278Z" fill="#4285F4"/>
<path d="M9.33795 15.2494C10.5602 15.2494 11.5934 14.8383 12.3432 14.1318L10.8815 12.9756C10.472 13.2582 9.94904 13.4188 9.33795 13.4188C8.15351 13.4188 7.15175 12.6031 6.79264 11.5111H5.28688V12.7058C6.05551 14.2667 7.62424 15.2494 9.33795 15.2494Z" fill="#34A853"/>
<path d="M6.79245 11.5112C6.60344 10.9396 6.60344 10.3165 6.79245 9.73848V8.55011H5.28669C4.63777 9.85405 4.63777 11.3957 5.28669 12.6995L6.79245 11.5112Z" fill="#FBBC04"/>
<path d="M9.33795 7.83085C9.98684 7.81803 10.6106 8.06853 11.0768 8.52461L12.3746 7.20138C11.5493 6.41778 10.4656 5.98743 9.33795 6.00028C7.62425 6.00028 6.05551 6.98942 5.28688 8.55031L6.79264 9.74495C7.15176 8.64659 8.15351 7.83085 9.33795 7.83085Z" fill="#EA4335"/>
<rect x="0.375" y="0.375" width="36.25" height="22.25" rx="3.625" stroke="black" stroke-width="0.75"/>
</svg>
